<?xml version="1.0" encoding="utf-8"?>
<!-- Generator: Adobe Illustrator 24.3.0, SVG Export Plug-In . SVG Version: 6.00 Build 0)  -->
<svg version="1.1" id="Capa_1" xmlns="http://www.w3.org/2000/svg" xmlns:xlink="http://www.w3.org/1999/xlink" x="0px" y="0px"
	 viewBox="0 0 512 512" style="enable-background:new 0 0 512 512;" xml:space="preserve">
<style type="text/css">
	.st0{fill:#4191E0;}
</style>
<g>
	<g>
		<path class="st0" d="M506.9,214.7l-54.9-48V76c0-8.3-6.7-15-15-15H330.3L266,3.8c-5.7-5-14.2-5.1-19.9-0.1L180.8,61H75
			c-8.3,0-15,6.7-15,15v90.7l-54.9,48c-3.2,2.8-5.1,7-5.1,11.3v241c0,24.8,20.2,45,45,45h422c24.8,0,45-20.2,45-45V226
			C512,221.6,510,217.5,506.9,214.7z M452,206.6l23.1,20.2L452,249.8V206.6z M255.9,35l29.2,26h-58.9L255.9,35z M90,91h332v188.8
			L340.8,361H171.2L90,279.8V91z M60,206.6v43.2l-23.1-23.1L60,206.6z M30,466.9V262.2c5.8,5.8,107.6,107.6,116.5,116.5L30,466.9z
			 M59.8,482c127.2-96.3,118.9-89.9,120-91h152.5c1.1,1.1-7.2-5.3,120,91H59.8z M482,466.9l-116.5-88.2
			c9.3-9.3,110.9-110.9,116.5-116.5V466.9z"/>
	</g>
</g>
<g>
	<g>
		<path class="st0" d="M377,121h-61c-8.3,0-15,6.7-15,15s6.7,15,15,15h61c8.3,0,15-6.7,15-15S385.3,121,377,121z"/>
	</g>
</g>
<g>
	<g>
		<path class="st0" d="M377,181H135c-8.3,0-15,6.7-15,15s6.7,15,15,15h242c8.3,0,15-6.7,15-15S385.3,181,377,181z"/>
	</g>
</g>
<g>
	<g>
		<path class="st0" d="M377,241H135c-8.3,0-15,6.7-15,15s6.7,15,15,15h242c8.3,0,15-6.7,15-15S385.3,241,377,241z"/>
	</g>
</g>
<g>
	<g>
		<path class="st0" d="M316,301H195c-8.3,0-15,6.7-15,15s6.7,15,15,15h121c8.3,0,15-6.7,15-15S324.3,301,316,301z"/>
	</g>
</g>
</svg>
