<svg xmlns="http://www.w3.org/2000/svg" viewBox="0 0 512 512"><defs><style>.cls-1{fill:#fff;}.cls-2{fill:#4191e0;}</style></defs><title>Logo512px</title><g id="Capa_3" data-name="Capa 3"><path class="cls-1" d="M275.43,437.55c-2.6-29.93-6-81.73.11-92.37C279,338.58,364.69,176.87,402.77,121a25.46,25.46,0,0,1,21.93-11.52,52.07,52.07,0,0,1,14.22,2.42l.57.16c14.67,4.08,40.47,19,51.11,29.52,4.81,4.76,19.43,19.23,9.09,38.25-30.77,56.63-126.8,219.67-127.77,221.31-6.23,10.8-56.24,31.7-85.49,43.2l-10.06,3.95Z"/><path d="M496.3,135.88c-11.63-11.52-38.66-27.13-54.65-31.55l-.54-.16a59.93,59.93,0,0,0-16.42-2.74,33.65,33.65,0,0,0-28.59,15c-24.82,36.39-69.51,117-99,171.37-3.07,5.71-6,11.14-8.72,16.15-11,20.41-18.57,34.67-20,37.42-2.37,4.2-8,15.83-1.13,95.46H26.49a8.07,8.07,0,0,0-8.07,8.07h0A8.07,8.07,0,0,0,26.49,453H268.77c10.07,0,30.15-5.49,50.5-13.3a2.41,2.41,0,0,0,.54-.21c29.34-12.55,43.67-20.62,51-26a13.37,13.37,0,0,0,1.4-1.08c.43-.37.86-.7,1.23-1a29.87,29.87,0,0,0,4.85-5.22c.11-.22.27-.38.38-.59s.16-.27.27-.43l1.77-3c13.36-22.61,97.56-165.93,126.1-218.43C512.83,172.6,515.9,155.32,496.3,135.88ZM492.58,176c-22.34,41.08-78.5,137.35-108.27,188.17v.06C372.57,384.14,365,397.06,365,397.06a8.09,8.09,0,0,1-1.61,1.94h-.06a20.78,20.78,0,0,1-1.61,1.34c-8.78,7.11-31.61,18.2-53.3,26.28a220.74,220.74,0,0,1-25.15,8c-1-12.76-5.92-76.35-.7-85.39,0,0,9.8-18.47,24.29-45.23q4.11-7.67,8.72-16.15c29.23-53.68,70.74-128.35,93.89-162.27a17.36,17.36,0,0,1,15.24-8c4.74,0,9.31,1.34,12.65,2.31,13.19,3.66,37.8,17.77,47.6,27.46C490.21,152.57,499.8,162.8,492.58,176Z"/><path class="cls-2" d="M123.4,374c-16.31,0-43.61,0-69.21-3.44-20.84-2.79-35.77-18.28-41-42.49-5.61-26.12-5.61-188.9,0-215,5.21-24.21,20.14-39.7,41-42.5,25.6-3.43,52.9-3.43,69.21-3.43,60.45,0,115.93,36.41,140.31,91.35,24.88-25.3,42.67-41.92,52.92-49.44a25.35,25.35,0,0,1,15.06-5.11c12,0,21.35,8.93,22.3,21.25,3.6,46.36,3.6,144.42,0,190.78-.95,12.31-10.33,21.25-22.3,21.25h0a25.35,25.35,0,0,1-15.06-5.11c-10.26-7.53-28.05-24.16-52.91-49.44C239.33,337.54,183.85,374,123.4,374ZM125.93,178a25.56,25.56,0,0,0-3.46.23c-2.65.36-4.42,2.55-5.27,6.51-1.65,7.69-1.65,63.85,0,71.54.85,4,2.62,6.15,5.27,6.51a25.56,25.56,0,0,0,3.46.23,24.22,24.22,0,0,0,14.78-5.21c11.08-8.22,17.69-22.16,17.69-37.3s-6.61-29.08-17.69-37.3A24.22,24.22,0,0,0,125.93,178Z"/><path d="M123.4,75.15A145.41,145.41,0,0,1,259,168.1a3.3,3.3,0,0,0,3.1,2.16,3.19,3.19,0,0,0,2.3-1c20.65-21.15,44.3-44.44,57-53.78A17.37,17.37,0,0,1,331.69,112c7.23,0,13.58,5.13,14.25,13.81,3.59,46.3,3.59,143.22,0,189.52-.67,8.68-7,13.81-14.25,13.81a17.37,17.37,0,0,1-10.28-3.55c-12.72-9.34-36.37-32.63-57-53.78a3.2,3.2,0,0,0-2.3-1,3.32,3.32,0,0,0-3.1,2.16,145.4,145.4,0,0,1-135.59,93c-16.15,0-43.07,0-68.13-3.37-19.05-2.55-30.13-17.4-34.16-36.19-5.39-25.05-5.39-186.57,0-211.62,4-18.79,15.11-33.64,34.16-36.19,25.06-3.37,52-3.37,68.13-3.37m2.52,196a32.28,32.28,0,0,0,19.6-6.8c27.94-20.73,27.94-66.85,0-87.58a32.22,32.22,0,0,0-19.6-6.8,33.24,33.24,0,0,0-4.52.31c-6.75.9-10.67,6.16-12.1,12.81-1.91,8.87-1.91,66.06,0,74.94,1.43,6.65,5.35,11.9,12.1,12.81a33.24,33.24,0,0,0,4.52.31M123.4,59c-16.51,0-44.15,0-70.28,3.51-24.42,3.28-41.84,21.06-47.8,48.8-5.93,27.56-5.93,190.86,0,218.42,6,27.73,23.38,45.52,47.8,48.8C79.25,382,106.89,382,123.4,382c59.71,0,114.8-33.75,142.57-85.67,21.06,21.11,36.46,35.28,45.88,42.19a33.4,33.4,0,0,0,19.84,6.68c16.3,0,29.06-12.07,30.35-28.71,3.69-47.56,3.69-144.46,0-192C360.75,107.87,348,95.8,331.69,95.8a33.4,33.4,0,0,0-19.84,6.68c-9.42,6.91-24.82,21.08-45.88,42.19C238.2,92.75,183.11,59,123.4,59Zm1.77,127.1.75,0a16.19,16.19,0,0,1,10,3.63c9,6.7,14.42,18.22,14.42,30.81s-5.39,24.11-14.42,30.81a16.19,16.19,0,0,1-10,3.63l-.75,0c0-.11,0-.22-.08-.35-1.41-7.88-1.41-60.26,0-68.25l.06-.24Z"/></g></svg>