<?xml version="1.0" encoding="utf-8"?>
<!-- Generator: Adobe Illustrator 24.3.0, SVG Export Plug-In . SVG Version: 6.00 Build 0)  -->
<svg version="1.1" id="Layer_1" xmlns="http://www.w3.org/2000/svg" xmlns:xlink="http://www.w3.org/1999/xlink" x="0px" y="0px"
	 viewBox="0 0 512 512" style="enable-background:new 0 0 512 512;" xml:space="preserve">
<style type="text/css">
	.st0{fill:#4191E0;}
</style>
<g>
	<g>
		<path class="st0" d="M439.7,347.9v-97.5c0-85.8-59.1-158-138.8-178.1c3.3-6.7,5.2-14.3,5.2-22.2C306.1,22.5,283.6,0,256,0
			s-50.1,22.5-50.1,50.1c0,8,1.9,15.5,5.2,22.2C131.5,92.4,72.3,164.6,72.3,250.4v97.5C52.9,354.8,39,373.4,39,395.1
			c0,27.6,22.5,50.1,50.1,50.1h85.2C182,483.3,215.7,512,256,512s74-28.7,81.8-66.8H423c27.6,0,50.1-22.5,50.1-50.1
			C473,373.4,459.1,354.8,439.7,347.9z M256,33.4c9.2,0,16.7,7.5,16.7,16.7s-7.5,16.7-16.7,16.7s-16.7-7.5-16.7-16.7
			S246.8,33.4,256,33.4z M256,478.6c-21.8,0-40.3-14.1-47.2-33.5h94.4C296.3,464.5,277.8,478.6,256,478.6z M423,411.8H89
			c-9.2,0-16.7-7.5-16.7-16.7s7.5-16.7,16.7-16.7h33.4c9.2,0,16.7-7.5,16.7-16.7s-7.5-16.7-16.7-16.7h-16.7v-94.6
			c0-82.9,67.4-150.3,150.3-150.3s150.3,67.4,150.3,150.3V345h-16.7c-9.2,0-16.7,7.5-16.7,16.7s7.5,16.7,16.7,16.7H423
			c9.2,0,16.7,7.5,16.7,16.7S432.2,411.8,423,411.8z"/>
	</g>
</g>
<g>
	<g>
		<path class="st0" d="M256,133.6c-64.4,0-116.9,52.4-116.9,116.9c0,9.2,7.5,16.7,16.7,16.7s16.7-7.5,16.7-16.7
			c0-46,37.4-83.5,83.5-83.5c9.2,0,16.7-7.5,16.7-16.7S265.2,133.6,256,133.6z"/>
	</g>
</g>
</svg>
